<?xml version="1.0" encoding="UTF-8"?>
<svg width="60px" height="60px" viewBox="0 0 60 60" version="1.1" xmlns="http://www.w3.org/2000/svg" xmlns:xlink="http://www.w3.org/1999/xlink">
    <!-- Generator: Sketch 61.2 (89653) - https://sketch.com -->
    <title>编组 6</title>
    <desc>Created with Sketch.</desc>
    <defs>
        <polygon id="path-1" points="0.0356990994 0.0700339457 10.6308943 0.0700339457 10.6308943 2.91134185 0.0356990994 2.91134185"></polygon>
        <polygon id="path-3" points="0.0670159506 0.0700339457 10.6622111 0.0700339457 10.6622111 2.91134185 0.0670159506 2.91134185"></polygon>
    </defs>
    <g id="Page-1" stroke="none" stroke-width="1" fill="none" fill-rule="evenodd">
        <g id="聯系我們" transform="translate(-600.000000, -1110.000000)">
            <g id="公司简介" transform="translate(0.000000, 550.000000)">
                <g id="编组-6" transform="translate(600.000000, 560.000000)">
                    <circle id="椭圆形备份" fill="#F3F5F9" fill-rule="nonzero" cx="30" cy="30" r="30"></circle>
                    <g id="QQ-logo" transform="translate(12.000000, 12.000000)">
                        <rect id="Rectangle-14-Copy" fill="#D8D8D8" opacity="0" x="0" y="0" width="36" height="36"></rect>
                        <g id="Group" transform="translate(3.600000, 2.900000)">
                            <g id="Group-3" transform="translate(3.557224, 28.840923)">
                                <mask id="mask-2" fill="white">
                                    <use xlink:href="#path-1"></use>
                                </mask>
                                <g id="Clip-2"></g>
                            </g>
                            <g id="Group-6" transform="translate(14.121103, 28.840923)">
                                <mask id="mask-4" fill="white">
                                    <use xlink:href="#path-3"></use>
                                </mask>
                                <g id="Clip-5"></g>
                            </g>
                            <g id="Group-11" transform="translate(0.000000, 15.901625)"></g>
                            <path d="M14.4999102,-3.29514194e-13 C21.1280431,0.000287521098 23.8233457,5.78942899 23.8233457,11.5508726 C23.8233457,11.8930227 23.8066301,12.5561422 23.8055854,12.5954367 L23.8055854,12.595408 L25.1432168,15.9644269 C25.5096313,16.928581 25.871487,17.9325088 26.136563,18.7934428 C27.4006836,22.8984773 26.9911503,24.5974395 26.6793465,24.6353923 C26.0100559,24.7170483 24.0745553,21.5451155 24.0745553,21.5451155 C24.0745553,23.3817061 23.1383113,25.7785568 21.1111508,27.5093206 L20.997813,27.4745577 C21.7749955,27.7087916 22.7691964,28.0859234 23.3966979,28.5535286 C23.933498,28.9534704 23.8665405,29.3612712 23.7697607,29.5259249 C23.3450314,30.2492322 16.4821197,29.9877796 14.500746,29.7625548 L14.354739,29.7783141 C12.2037397,29.9994076 5.6465832,30.2324111 5.23173131,29.5259249 C5.13495152,29.3612712 5.06799397,28.9534704 5.60479409,28.5535286 C6.23229558,28.0859234 7.22649651,27.7087916 8.003679,27.4745577 L7.88976064,27.5101709 C5.86191077,25.7793419 4.92536014,23.3820069 4.92536014,21.5451155 C4.92536014,21.5451155 2.98985949,24.7170483 2.32066387,24.6353923 C2.00886011,24.5974395 1.59932683,22.8984773 2.86335245,18.7934428 C3.12842838,17.9325088 3.49028409,16.928581 3.85669861,15.9644269 L3.85669861,15.9644269 L5.19433005,12.595408 L5.19433005,12.595408 L5.19368314,12.569961 C5.19040074,12.4382118 5.17666465,11.861831 5.17666465,11.5508726 C5.17666465,5.78942899 7.87196732,0.000287521098 14.4999102,-3.29514194e-13 Z" id="形状结合" fill="#020E27" opacity="0.300000012"></path>
                        </g>
                    </g>
                </g>
            </g>
        </g>
    </g>
</svg>