<?xml version="1.0" encoding="UTF-8"?>
<svg width="60px" height="60px" viewBox="0 0 60 60" version="1.1" xmlns="http://www.w3.org/2000/svg" xmlns:xlink="http://www.w3.org/1999/xlink">
    <!-- Generator: Sketch 61.2 (89653) - https://sketch.com -->
    <title>编组 3</title>
    <desc>Created with Sketch.</desc>
    <g id="Page-1" stroke="none" stroke-width="1" fill="none" fill-rule="evenodd">
        <g id="聯系我們" transform="translate(-1000.000000, -1110.000000)">
            <g id="公司简介" transform="translate(0.000000, 550.000000)">
                <g id="编组-3" transform="translate(1000.000000, 560.000000)">
                    <circle id="椭圆形备份-2" fill="#F3F5F9" fill-rule="nonzero" cx="30" cy="30" r="30"></circle>
                    <path d="M22.1999791,28.266697 C24.2222067,32.3111523 27.6888478,35.6333485 31.7333031,37.800021 L34.9110894,34.6222347 C35.3444239,34.1889002 35.9222032,34.0444554 36.3555377,34.333345 C37.9444309,34.9111243 39.6777689,35.200014 41.5555517,35.200014 C42.4222207,35.200014 43,35.7777933 43,36.6444623 L43,41.5555517 C43,42.4222207 42.4222207,43 41.5555517,43 C27.9777724,43 17,32.0222277 17,18.4444483 C17,17.5777793 17.5777793,17 18.4444483,17 L23.5000174,17 C24.3666864,17 24.9444658,17.5777793 24.9444658,18.4444483 C24.9444658,20.1777863 25.2333554,21.9111243 25.8111347,23.6444623 C25.9555796,24.0777968 25.8111347,24.6555761 25.5222451,25.0889106 L22.1999791,28.266697 Z" id="路径" fill="#020E27" opacity="0.300000012"></path>
                </g>
            </g>
        </g>
    </g>
</svg>