<?xml version="1.0" encoding="UTF-8"?>
<svg width="60px" height="60px" viewBox="0 0 60 60" version="1.1" xmlns="http://www.w3.org/2000/svg" xmlns:xlink="http://www.w3.org/1999/xlink">
    <!-- Generator: Sketch 61.2 (89653) - https://sketch.com -->
    <title>编组 4</title>
    <desc>Created with Sketch.</desc>
    <g id="Page-1" stroke="none" stroke-width="1" fill="none" fill-rule="evenodd">
        <g id="聯系我們" transform="translate(-1000.000000, -1210.000000)">
            <g id="公司简介" transform="translate(0.000000, 550.000000)">
                <g id="编组-4" transform="translate(1000.000000, 660.000000)">
                    <circle id="椭圆形备份-5" fill="#F3F5F9" fill-rule="nonzero" cx="30" cy="30" r="30"></circle>
                    <g id="地址" transform="translate(18.000000, 14.000000)" fill="#020E27" opacity="0.300000012">
                        <path d="M12.1264332,0.00412355026 C5.43330522,0.00412355026 0.00707902706,5.36787661 0.00707902706,11.9833995 C0.00707902706,18.5988565 12.1264332,31.9501013 12.1264332,31.9501013 C12.1264332,31.9501013 24.2457875,18.5988565 24.2457875,11.9833995 C24.2457875,5.36787661 18.8196272,0.00412355026 12.1264332,0.00412355026 Z M12.1264332,19.9698363 C7.6645347,19.9698363 4.04669894,16.3947262 4.04669894,11.9833995 C4.04669894,7.57302896 7.6645347,3.99692983 12.1264332,3.99692983 C16.5883977,3.99692983 20.2061676,7.57306192 20.2061676,11.9833995 C20.2061676,16.3947262 16.5883977,19.9698363 12.1264332,19.9698363 Z M12.1264332,7.99062622 C9.89523673,7.99062622 8.08681334,9.7782472 8.08681334,11.9833995 C8.08681334,14.1885849 9.89523673,15.9771289 12.1264332,15.9771289 C14.3576298,15.9771289 16.1660532,14.1886178 16.1660532,11.9833995 C16.1660532,9.77824723 14.3576298,7.99062622 12.1264332,7.99062622 Z" id="形状"></path>
                    </g>
                </g>
            </g>
        </g>
    </g>
</svg>