<?xml version="1.0" encoding="UTF-8"?>
<svg width="60px" height="60px" viewBox="0 0 60 60" version="1.1" xmlns="http://www.w3.org/2000/svg" xmlns:xlink="http://www.w3.org/1999/xlink">
    <!-- Generator: Sketch 61.2 (89653) - https://sketch.com -->
    <title>编组 7</title>
    <desc>Created with Sketch.</desc>
    <g id="Page-1" stroke="none" stroke-width="1" fill="none" fill-rule="evenodd">
        <g id="聯系我們" transform="translate(-200.000000, -1110.000000)">
            <g id="公司简介" transform="translate(0.000000, 550.000000)">
                <g id="编组-7" transform="translate(200.000000, 560.000000)">
                    <circle id="椭圆形" fill="#F3F5F9" fill-rule="nonzero" cx="30" cy="30" r="30"></circle>
                    <g id="WeChat-logo" transform="translate(14.000000, 14.000000)">
                        <rect id="Rectangle-14" fill="#D8D8D8" opacity="0" x="0" y="0" width="32" height="32"></rect>
                        <path d="M28.6700393,26.2611415 C28.5064162,26.3782457 28.3999069,26.570188 28.3999069,26.7869471 C28.3999069,26.8586831 28.415343,26.9242149 28.4338664,26.9928488 C28.5963317,27.60086 28.8556589,28.5749187 28.8683937,28.6206746 C28.8880747,28.6970638 28.9201047,28.776555 28.9201047,28.8568218 C28.9201047,29.0348047 28.7761627,29.17944 28.5986472,29.17944 C28.5287986,29.17944 28.4716849,29.1530722 28.4126417,29.1193369 L26.3029077,27.8951715 C26.1443014,27.8032719 25.9764334,27.7466586 25.7911997,27.7466586 C25.6924084,27.7466586 25.5974762,27.7617813 25.5079466,27.7889247 C24.5235069,28.0735421 23.4611148,28.2317491 22.3616759,28.2317491 C17.038524,28.2317491 12.722966,24.618193 12.722966,20.1608662 C12.722966,15.7031517 17.038524,12.090371 22.3616759,12.090371 C27.6848278,12.090371 32,15.7031517 32,20.1608662 C32,22.5925231 30.7022068,24.7814409 28.6700393,26.2611415 Z M11.5662976,3.17944 C17.3363257,3.17944 22.1188269,6.7177703 22.9898109,11.3449369 C22.781809,11.3344673 22.5726493,11.3278754 22.3619461,11.3278754 C16.5355761,11.3278754 11.8132758,15.2826623 11.8132758,20.1607111 C11.8132758,20.9835425 11.9498856,21.7788428 12.2014947,22.5345914 C11.9911773,22.5438977 11.7793163,22.5497141 11.5662976,22.5497141 C10.246122,22.5497141 8.97186885,22.3600984 7.79061845,22.0184799 C7.68295139,21.9855201 7.56949578,21.9680708 7.45063752,21.9680708 C7.22874305,21.9680708 7.02691556,22.0359292 6.83666517,22.1460537 L4.30436686,23.614897 C4.23374653,23.6559998 4.16544162,23.6870208 4.08170058,23.6870208 C3.86868189,23.6870208 3.69618305,23.513691 3.69618305,23.3000341 C3.69618305,23.203869 3.73400159,23.1084795 3.75831351,23.0165799 C3.77297784,22.9619054 4.0844019,21.79319 4.27928314,21.0630338 C4.30205144,20.9808282 4.3201889,20.9021125 4.3201889,20.816417 C4.3201889,20.5558408 4.19245486,20.32551 3.99641592,20.1847523 C1.55789215,18.4095769 0,15.7828756 0,12.8645771 C0,7.51578495 5.17805222,3.17944 11.5662976,3.17944 Z M19.148644,18.7870246 C19.8135556,18.7870246 20.3518909,18.2460963 20.3518909,17.577982 C20.3518909,16.9102555 19.8135556,16.3689394 19.148644,16.3689394 C18.4837324,16.3689394 17.9453971,16.9102555 17.9453971,17.577982 C17.9453971,18.2460963 18.4837324,18.7870246 19.148644,18.7870246 Z M25.5747079,18.7870246 C26.2392336,18.7870246 26.7783407,18.2460963 26.7783407,17.577982 C26.7783407,16.9102555 26.2392336,16.3689394 25.5747079,16.3689394 C24.9101822,16.3689394 24.371461,16.9102555 24.371461,17.577982 C24.371461,18.2460963 24.9101822,18.7870246 25.5747079,18.7870246 Z M7.71112234,11.1390352 C8.46594945,11.1390352 9.07837819,10.5240443 9.07837819,9.76519362 C9.07837819,9.00634294 8.46594945,8.39135206 7.71112234,8.39135206 C6.95552342,8.39135206 6.34309468,9.00634294 6.34309468,9.76519362 C6.34309468,10.5240443 6.95552342,11.1390352 7.71112234,11.1390352 Z M15.4214729,11.1390352 C16.1766859,11.1390352 16.7891146,10.5240443 16.7891146,9.76519362 C16.7891146,9.00634294 16.1766859,8.39135206 15.4214729,8.39135206 C14.6662599,8.39135206 14.054217,9.00634294 14.054217,9.76519362 C14.054217,10.5240443 14.6662599,11.1390352 15.4214729,11.1390352 Z" id="Fill-1" fill="#020E27" opacity="0.300000012"></path>
                    </g>
                </g>
            </g>
        </g>
    </g>
</svg>