<?xml version="1.0" encoding="UTF-8"?>
<svg width="182px" height="26px" viewBox="0 0 182 26" version="1.1" xmlns="http://www.w3.org/2000/svg" xmlns:xlink="http://www.w3.org/1999/xlink">
    <!-- Generator: Sketch 61.2 (89653) - https://sketch.com -->
    <title>画板</title>
    <desc>Created with Sketch.</desc>
    <defs>
        <polygon id="path-1" points="0 0.156148282 21.1782821 0.156148282 21.1782821 24.5328511 0 24.5328511"></polygon>
        <polygon id="path-3" points="0.168878843 0.493574442 17.6583484 0.493574442 17.6583484 11.2718505 0.168878843 11.2718505"></polygon>
        <polygon id="path-5" points="0.168613623 0.324894515 17.6583484 0.324894515 17.6583484 4.3031947 0.168613623 4.3031947"></polygon>
    </defs>
    <g id="画板" stroke="none" stroke-width="1" fill="none" fill-rule="evenodd">
        <g id="编组-2" transform="translate(1.000000, 0.000000)">
            <g id="编组">
                <g transform="translate(0.000000, 0.507167)">
                    <mask id="mask-2" fill="white">
                        <use xlink:href="#path-1"></use>
                    </mask>
                    <g id="Clip-2"></g>
                    <path d="M3.97876432,10.9340265 L3.97876432,4.13511151 L6.10450271,4.13511151 L6.79937914,4.13511151 L21.1782821,4.13511151 C18.9497709,1.6950874 15.7532068,0.156148282 12.1886498,0.156148282 L-0.000198915009,0.156148282 L-0.000198915009,24.5331826 L3.97876432,24.5331826 L3.97876432,13.7546414 L3.97876432,10.9340265 Z" id="Fill-1" fill="#0055FF" mask="url(#mask-2)"></path>
                </g>
                <g transform="translate(6.630500, 13.768168)">
                    <mask id="mask-4" fill="white">
                        <use xlink:href="#path-3"></use>
                    </mask>
                    <g id="Clip-4"></g>
                    <path d="M0.168878843,0.493574442 L0.168878843,11.2721157 L5.55814949,11.2721157 C11.8120374,11.2721157 16.9579687,6.55981917 17.6588125,0.493574442 L0.168878843,0.493574442 Z" id="Fill-3" fill="#00E59E" mask="url(#mask-4)"></path>
                </g>
                <g transform="translate(6.630500, 7.137667)">
                    <mask id="mask-6" fill="white">
                        <use xlink:href="#path-5"></use>
                    </mask>
                    <g id="Clip-6"></g>
                    <path d="M16.4776552,0.324894515 L0.168613623,0.324894515 L0.168613623,4.3031947 L17.6585473,4.3031947 C17.494774,2.88758288 17.0836829,1.55021097 16.4776552,0.324894515" id="Fill-5" fill="#00C9FF" mask="url(#mask-6)"></path>
                </g>
            </g>
            <path d="M40.3916667,20.9616667 C43.0316667,19.55 44.48,17.295 44.7733333,14.215 L45.8916667,14.215 L45.8916667,18.945 C45.8916667,20.045 46.4233333,20.6133333 47.4866667,20.6133333 L49.045,20.6133333 C49.595,20.6133333 50.0166667,20.4666667 50.2916667,20.1916667 C50.5666667,19.8983333 50.7683333,18.9633333 50.8966667,17.405 L49.1916667,16.855 C49.155,17.845 49.1,18.45 49.0266667,18.6516667 C48.9716667,18.835 48.8616667,18.9266667 48.715,18.9266667 L48.0366667,18.9266667 C47.78,18.9266667 47.67,18.7983333 47.67,18.5783333 L47.67,14.215 L49.0633333,14.215 L49.0633333,9.46666667 C49.265,9.65 49.485,9.85166667 49.7416667,10.035 L51.025,8.51333333 C49.3566667,7.37666667 48.22,5.83666667 47.5966667,3.89333333 L46.0566667,4.77333333 C46.4783333,6.09333333 47.12,7.285 48,8.34833333 L42.5916667,8.34833333 C43.3066667,7.35833333 43.93,6.16666667 44.48,4.77333333 L42.775,4.07666667 C42.1516667,5.87333333 41.2533333,7.35833333 40.0433333,8.56833333 C39.8966667,8.055 39.7316667,7.56 39.5666667,7.08333333 L38.32,7.48666667 L38.32,4.00333333 L36.505,4.00333333 L36.505,20.8333333 L38.32,20.8333333 L38.32,7.63333333 C38.705,8.86166667 39.035,10.145 39.2916667,11.5016667 L40.685,11.1533333 L40.41,9.925 L40.8133333,10.2916667 C41.07,10.0716667 41.3266667,9.815 41.5833333,9.55833333 L41.5833333,14.215 L42.9766667,14.215 C42.7016667,16.5983333 41.4916667,18.3033333 39.3466667,19.2933333 L40.3916667,20.9616667 Z M35.405,12.8766667 C35.735,11.2266667 35.9366667,9.50333333 35.9733333,7.67 L34.5616667,7.56 C34.5066667,9.28333333 34.305,10.915 33.9383333,12.4733333 L35.405,12.8766667 Z M47.285,12.5283333 L43.38,12.5283333 L43.38,10.035 L47.285,10.035 L47.285,12.5283333 Z M68.295,21.035 L69.3583333,19.4033333 C66.5716667,18.3766667 64.225,17.13 62.3366667,15.6266667 C64.0233333,13.775 65.3066667,11.4833333 66.1866667,8.73333333 L68.955,8.73333333 L68.955,6.82666667 L62.025,6.82666667 C61.475,5.635 60.87,4.60833333 60.21,3.74666667 L58.285,4.44333333 C58.945,5.195 59.5133333,5.98333333 59.9716667,6.82666667 L52.7116667,6.82666667 L52.7116667,8.73333333 L55.4983333,8.73333333 C56.2683333,11.3916667 57.6433333,13.72 59.6233333,15.7366667 C57.7166667,17.35 55.2966667,18.5233333 52.3816667,19.275 L53.4083333,20.9616667 C56.3966667,20.1183333 58.9266667,18.78 60.98,16.965 C62.9233333,18.5783333 65.3616667,19.935 68.295,21.035 Z M60.98,14.435 C59.2933333,12.785 58.0833333,10.8966667 57.3316667,8.73333333 L64.2066667,8.73333333 C63.4916667,10.9516667 62.41,12.8583333 60.98,14.435 Z M75.8116667,20.8516667 L75.8116667,13.0233333 C76.325,13.5733333 76.93,14.3066667 77.645,15.205 L78.7266667,13.5916667 C77.7366667,12.6933333 76.765,11.8866667 75.8116667,11.1533333 L75.8116667,10.53 L78.085,10.53 L78.085,8.67833333 L75.8116667,8.67833333 L75.8116667,6.27666667 C76.6183333,6.13 77.37,5.94666667 78.1033333,5.76333333 L77.425,3.96666667 C75.555,4.51666667 73.4466667,4.865 71.0816667,5.04833333 L71.4666667,6.845 C72.2916667,6.77166667 73.0983333,6.68 73.8866667,6.57 L73.8866667,8.67833333 L71.0816667,8.67833333 L71.0816667,10.53 L73.6483333,10.53 C72.97,12.3083333 71.925,13.9033333 70.495,15.2966667 L71.3383333,17.4416667 C72.365,16.1583333 73.2266667,14.7283333 73.8866667,13.1883333 L73.8866667,20.8516667 L75.8116667,20.8516667 Z M86.0416667,20.87 L86.0416667,15.81 L87.7283333,15.535 L87.4166667,13.665 L86.0416667,13.885 L86.0416667,4.00333333 L84.1166667,4.00333333 L84.1166667,14.1966667 L78.3783333,15.1133333 L78.6716667,16.9833333 L84.1166667,16.1216667 L84.1166667,20.87 L86.0416667,20.87 Z M82.3383333,8.88 L83.6583333,7.54166667 C82.815,6.68 81.77,5.81833333 80.56,4.93833333 L79.2033333,6.25833333 C80.56,7.175 81.605,8.055 82.3383333,8.88 Z M81.8066667,13.2433333 L83.1816667,11.8683333 C82.3016667,10.97 81.2566667,10.0716667 80.01,9.155 L78.6533333,10.475 C80.01,11.465 81.0733333,12.4 81.8066667,13.2433333 Z M91.285,20.705 C92.495,20.705 93.1183333,20.0633333 93.1183333,18.7983333 L93.1183333,13.8483333 C93.705,13.5733333 94.2916667,13.28 94.8783333,12.9683333 L94.8783333,11.0983333 C94.2916667,11.4283333 93.705,11.7216667 93.1183333,11.9966667 L93.1183333,8.95333333 L94.8416667,8.95333333 L94.8416667,7.10166667 L93.1183333,7.10166667 L93.1183333,3.96666667 L91.2483333,3.96666667 L91.2483333,7.10166667 L89.2316667,7.10166667 L89.2316667,8.95333333 L91.2483333,8.95333333 L91.2483333,12.7483333 C90.46,13.005 89.6716667,13.2433333 88.865,13.4266667 L89.36,15.315 C89.9833333,15.095 90.625,14.875 91.2483333,14.6366667 L91.2483333,18.3216667 C91.2483333,18.7983333 91.0466667,19.0366667 90.6433333,19.0366667 C90.2033333,19.0366667 89.7633333,19 89.305,18.9266667 L89.7083333,20.705 L91.285,20.705 Z M95.7766667,20.9983333 C97.7383333,20.32 99.4066667,19.4583333 100.781667,18.4133333 C101.955,19.33 103.421667,20.1733333 105.163333,20.9433333 L106.153333,19.3483333 C104.576667,18.725 103.22,18.0283333 102.12,17.24 C103.44,15.8833333 104.393333,14.27 104.943333,12.3816667 L104.943333,10.695 L101.405,10.695 L101.405,8.22 L105.64,8.22 L105.64,6.405 L101.405,6.405 L101.405,4.00333333 L99.535,4.00333333 L99.535,6.405 L95.3,6.405 L95.3,8.22 L99.535,8.22 L99.535,10.695 L95.6666667,10.695 L95.6666667,12.4916667 L96.62,12.4916667 C97.0966667,14.2333333 98.0316667,15.81 99.425,17.2216667 C98.1783333,18.12 96.6566667,18.835 94.8783333,19.385 L95.7766667,20.9983333 Z M100.726667,16.1033333 C99.6083333,15.04 98.8383333,13.83 98.4166667,12.4916667 L103.073333,12.4916667 C102.541667,13.8666667 101.753333,15.0766667 100.726667,16.1033333 Z M113.395,20.8883333 L113.395,17.075 L120.068333,17.075 L120.068333,18.56 C120.068333,18.9633333 119.848333,19.165 119.408333,19.165 C118.821667,19.165 118.18,19.1283333 117.501667,19.0733333 L117.96,20.7966667 L120.013333,20.7966667 C121.241667,20.76 121.865,20.2283333 121.865,19.165 L121.865,9.22833333 L113.578333,9.22833333 C113.89,8.69666667 114.183333,8.165 114.476667,7.615 L124.028333,7.615 L124.028333,5.76333333 L115.283333,5.76333333 C115.485,5.21333333 115.668333,4.645 115.851667,4.05833333 L113.89,3.82 C113.688333,4.48 113.45,5.12166667 113.175,5.76333333 L107.84,5.76333333 L107.84,7.615 L112.258333,7.615 C111.048333,9.705 109.416667,11.575 107.345,13.2066667 L108.591667,14.8383333 C109.691667,13.94 110.7,12.9683333 111.598333,11.9416667 L111.598333,20.8883333 L113.395,20.8883333 Z M120.068333,12.345 L113.395,12.345 L113.395,10.8783333 L120.068333,10.8783333 L120.068333,12.345 Z M120.068333,15.425 L113.395,15.425 L113.395,13.995 L120.068333,13.995 L120.068333,15.425 Z M141.701667,20.7966667 L142.765,19.11 C141.555,18.4133333 140.583333,17.57 139.831667,16.6166667 C140.748333,16.1033333 141.591667,15.4066667 142.343333,14.5266667 L141.133333,13.2983333 C140.436667,14.1416667 139.703333,14.7833333 138.933333,15.26 C138.53,14.5083333 138.236667,13.7016667 138.053333,12.8216667 L141.28,12.8216667 L141.28,4.49833333 L132.883333,4.49833333 L132.883333,18.4316667 C132.883333,18.6883333 132.718333,18.8716667 132.425,18.9633333 L132.883333,20.65 C134.936667,20.1366667 136.641667,19.5866667 137.998333,19.0183333 L137.54,17.24 C136.623333,17.68 135.706667,18.0283333 134.771667,18.3216667 L134.771667,12.8216667 L136.33,12.8216667 C136.935,16.1766667 138.731667,18.835 141.701667,20.7966667 Z M128.153333,20.925 L128.153333,6.31333333 L130.445,6.31333333 C129.986667,7.76166667 129.345,9.39333333 128.538333,11.2083333 C129.766667,12.73 130.39,14.105 130.39,15.3333333 C130.39,15.6266667 130.316667,15.8283333 130.17,15.9383333 C130.023333,16.0483333 129.73,16.1033333 129.29,16.14 C129.015,16.14 128.666667,16.1033333 128.263333,16.03 L128.886667,17.9733333 C130.243333,17.955 131.215,17.6983333 131.765,17.2216667 C132.131667,16.855 132.315,16.2133333 132.315,15.3333333 C132.223333,14.0866667 131.618333,12.62 130.481667,10.915 C131.196667,9.19166667 131.82,7.56 132.37,6.02 L132.37,4.51666667 L126.283333,4.51666667 L126.283333,20.925 L128.153333,20.925 Z M139.41,7.835 L134.771667,7.835 L134.771667,6.295 L139.41,6.295 L139.41,7.835 Z M139.41,11.08 L134.771667,11.08 L134.771667,9.55833333 L139.41,9.55833333 L139.41,11.08 Z M159.595,13.6283333 L160.97,12.0333333 C158.476667,9.94333333 156.735,7.24833333 155.745,3.94833333 L154.095,4.865 C155.14,8.45833333 156.973333,11.3733333 159.595,13.6283333 Z M145.588333,13.5916667 C147.696667,11.5566667 149.401667,8.64166667 150.685,4.82833333 L148.906667,4.095 C147.861667,7.48666667 146.248333,10.2183333 144.066667,12.2716667 L145.588333,13.5916667 Z M157.596667,20.925 L159.393333,20.1183333 C158.458333,17.8816667 157.34,15.7733333 156.056667,13.8116667 L154.333333,14.3983333 C154.938333,15.3516667 155.525,16.415 156.093333,17.57 C153.746667,17.9366667 151.326667,18.1933333 148.87,18.3583333 C150.373333,16.2683333 151.84,13.7383333 153.27,10.7866667 L151.381667,10.1266667 C148.998333,15.3883333 147.183333,18.1566667 145.955,18.4316667 L146.285,20.3016667 C150.19,20.045 153.728333,19.6966667 156.881667,19.22 C157.12,19.77 157.358333,20.3383333 157.596667,20.925 Z M175.691667,20.7783333 C177.085,20.7783333 177.781667,20.045 177.781667,18.5783333 L177.781667,4.51666667 L163.665,4.51666667 L163.665,6.35 L175.875,6.35 L175.875,18.0466667 C175.875,18.67 175.673333,19 175.27,19 L172.666667,18.945 L173.161667,20.7783333 L175.691667,20.7783333 Z M174.353333,9.87 L174.353333,8.12833333 L162.638333,8.12833333 L162.638333,9.87 L174.353333,9.87 Z M172.685,17.7166667 L172.685,11.63 L164.178333,11.63 L164.178333,17.7166667 L172.685,17.7166667 Z M170.851667,16.03 L165.993333,16.03 L165.993333,13.3166667 L170.851667,13.3166667 L170.851667,16.03 Z" id="悅文科技有限公司" fill="#000000" fill-rule="nonzero"></path>
        </g>
    </g>
</svg>