<?xml version="1.0" encoding="UTF-8"?>
<svg width="216px" height="32px" viewBox="0 0 216 32" version="1.1" xmlns="http://www.w3.org/2000/svg" xmlns:xlink="http://www.w3.org/1999/xlink">
    <!-- Generator: Sketch 61.2 (89653) - https://sketch.com -->
    <title>header_logo</title>
    <desc>Created with Sketch.</desc>
    <defs>
        <polygon id="path-1" points="0 0.187377939 25.4139385 0.187377939 25.4139385 29.4394213 0 29.4394213"></polygon>
        <polygon id="path-3" points="0.202654611 0.592289331 21.1900181 0.592289331 21.1900181 13.5262206 0.202654611 13.5262206"></polygon>
        <polygon id="path-5" points="0.202336347 0.389873418 21.1900181 0.389873418 21.1900181 5.16383363 0.202336347 5.16383363"></polygon>
    </defs>
    <g id="header_logo" stroke="none" stroke-width="1" fill="none" fill-rule="evenodd">
        <g id="编组-2">
            <g id="编组">
                <g transform="translate(0.000000, 0.608600)">
                    <mask id="mask-2" fill="white">
                        <use xlink:href="#path-1"></use>
                    </mask>
                    <g id="Clip-2"></g>
                    <path d="M4.77451718,13.1208318 L4.77451718,4.96213382 L7.32540325,4.96213382 L8.15925497,4.96213382 L25.4139385,4.96213382 C22.7397251,2.03410488 18.9038481,0.187377939 14.6263797,0.187377939 L-0.000238698011,0.187377939 L-0.000238698011,29.4398192 L4.77451718,29.4398192 L4.77451718,16.5055696 L4.77451718,13.1208318 Z" id="Fill-1" fill="#0055FF" mask="url(#mask-2)"></path>
                </g>
                <g transform="translate(7.956600, 16.521801)">
                    <mask id="mask-4" fill="white">
                        <use xlink:href="#path-3"></use>
                    </mask>
                    <g id="Clip-4"></g>
                    <path d="M0.202654611,0.592289331 L0.202654611,13.5265389 L6.66977939,13.5265389 C14.1744448,13.5265389 20.3495624,7.871783 21.190575,0.592289331 L0.202654611,0.592289331 Z" id="Fill-3" fill="#00E59E" mask="url(#mask-4)"></path>
                </g>
                <g transform="translate(7.956600, 8.565201)">
                    <mask id="mask-6" fill="white">
                        <use xlink:href="#path-5"></use>
                    </mask>
                    <g id="Clip-6"></g>
                    <path d="M19.7731863,0.389873418 L0.202336347,0.389873418 L0.202336347,5.16383363 L21.1902568,5.16383363 C20.9937288,3.46509946 20.5004195,1.86025316 19.7731863,0.389873418" id="Fill-5" fill="#00C9FF" mask="url(#mask-6)"></path>
                </g>
            </g>
            <path d="M48.47,25.354 C51.638,23.66 53.376,20.954 53.728,17.258 L55.07,17.258 L55.07,22.934 C55.07,24.254 55.708,24.936 56.984,24.936 L58.854,24.936 C59.514,24.936 60.02,24.76 60.35,24.43 C60.68,24.078 60.922,22.956 61.076,21.086 L59.03,20.426 C58.986,21.614 58.92,22.34 58.832,22.582 C58.766,22.802 58.634,22.912 58.458,22.912 L57.644,22.912 C57.336,22.912 57.204,22.758 57.204,22.494 L57.204,17.258 L58.876,17.258 L58.876,11.56 C59.118,11.78 59.382,12.022 59.69,12.242 L61.23,10.416 C59.228,9.052 57.864,7.204 57.116,4.872 L55.268,5.928 C55.774,7.512 56.544,8.942 57.6,10.218 L51.11,10.218 C51.968,9.03 52.716,7.6 53.376,5.928 L51.33,5.092 C50.582,7.248 49.504,9.03 48.052,10.482 C47.876,9.866 47.678,9.272 47.48,8.7 L45.984,9.184 L45.984,5.004 L43.806,5.004 L43.806,25.2 L45.984,25.2 L45.984,9.36 C46.446,10.834 46.842,12.374 47.15,14.002 L48.822,13.584 L48.492,12.11 L48.976,12.55 C49.284,12.286 49.592,11.978 49.9,11.67 L49.9,17.258 L51.572,17.258 C51.242,20.118 49.79,22.164 47.216,23.352 L48.47,25.354 Z M42.486,15.652 C42.882,13.672 43.124,11.604 43.168,9.404 L41.474,9.272 C41.408,11.34 41.166,13.298 40.726,15.168 L42.486,15.652 Z M56.742,15.234 L52.056,15.234 L52.056,12.242 L56.742,12.242 L56.742,15.234 Z M81.954,25.442 L83.23,23.484 C79.886,22.252 77.07,20.756 74.804,18.952 C76.828,16.73 78.368,13.98 79.424,10.68 L82.746,10.68 L82.746,8.392 L74.43,8.392 C73.77,6.962 73.044,5.73 72.252,4.696 L69.942,5.532 C70.734,6.434 71.416,7.38 71.966,8.392 L63.254,8.392 L63.254,10.68 L66.598,10.68 C67.522,13.87 69.172,16.664 71.548,19.084 C69.26,21.02 66.356,22.428 62.858,23.33 L64.09,25.354 C67.676,24.342 70.712,22.736 73.176,20.558 C75.508,22.494 78.434,24.122 81.954,25.442 Z M73.176,17.522 C71.152,15.542 69.7,13.276 68.798,10.68 L77.048,10.68 C76.19,13.342 74.892,15.63 73.176,17.522 Z M90.974,25.222 L90.974,15.828 C91.59,16.488 92.316,17.368 93.174,18.446 L94.472,16.51 C93.284,15.432 92.118,14.464 90.974,13.584 L90.974,12.836 L93.702,12.836 L93.702,10.614 L90.974,10.614 L90.974,7.732 C91.942,7.556 92.844,7.336 93.724,7.116 L92.91,4.96 C90.666,5.62 88.136,6.038 85.298,6.258 L85.76,8.414 C86.75,8.326 87.718,8.216 88.664,8.084 L88.664,10.614 L85.298,10.614 L85.298,12.836 L88.378,12.836 C87.564,14.97 86.31,16.884 84.594,18.556 L85.606,21.13 C86.838,19.59 87.872,17.874 88.664,16.026 L88.664,25.222 L90.974,25.222 Z M103.25,25.244 L103.25,19.172 L105.274,18.842 L104.9,16.598 L103.25,16.862 L103.25,5.004 L100.94,5.004 L100.94,17.236 L94.054,18.336 L94.406,20.58 L100.94,19.546 L100.94,25.244 L103.25,25.244 Z M98.806,10.856 L100.39,9.25 C99.378,8.216 98.124,7.182 96.672,6.126 L95.044,7.71 C96.672,8.81 97.926,9.866 98.806,10.856 Z M98.168,16.092 L99.818,14.442 C98.762,13.364 97.508,12.286 96.012,11.186 L94.384,12.77 C96.012,13.958 97.288,15.08 98.168,16.092 Z M109.542,25.046 C110.994,25.046 111.742,24.276 111.742,22.758 L111.742,16.818 C112.446,16.488 113.15,16.136 113.854,15.762 L113.854,13.518 C113.15,13.914 112.446,14.266 111.742,14.596 L111.742,10.944 L113.81,10.944 L113.81,8.722 L111.742,8.722 L111.742,4.96 L109.498,4.96 L109.498,8.722 L107.078,8.722 L107.078,10.944 L109.498,10.944 L109.498,15.498 C108.552,15.806 107.606,16.092 106.638,16.312 L107.232,18.578 C107.98,18.314 108.75,18.05 109.498,17.764 L109.498,22.186 C109.498,22.758 109.256,23.044 108.772,23.044 C108.244,23.044 107.716,23 107.166,22.912 L107.65,25.046 L109.542,25.046 Z M114.932,25.398 C117.286,24.584 119.288,23.55 120.938,22.296 C122.346,23.396 124.106,24.408 126.196,25.332 L127.384,23.418 C125.492,22.67 123.864,21.834 122.544,20.888 C124.128,19.26 125.272,17.324 125.932,15.058 L125.932,13.034 L121.686,13.034 L121.686,10.064 L126.768,10.064 L126.768,7.886 L121.686,7.886 L121.686,5.004 L119.442,5.004 L119.442,7.886 L114.36,7.886 L114.36,10.064 L119.442,10.064 L119.442,13.034 L114.8,13.034 L114.8,15.19 L115.944,15.19 C116.516,17.28 117.638,19.172 119.31,20.866 C117.814,21.944 115.988,22.802 113.854,23.462 L114.932,25.398 Z M120.872,19.524 C119.53,18.248 118.606,16.796 118.1,15.19 L123.688,15.19 C123.05,16.84 122.104,18.292 120.872,19.524 Z M136.074,25.266 L136.074,20.69 L144.082,20.69 L144.082,22.472 C144.082,22.956 143.818,23.198 143.29,23.198 C142.586,23.198 141.816,23.154 141.002,23.088 L141.552,25.156 L144.016,25.156 C145.49,25.112 146.238,24.474 146.238,23.198 L146.238,11.274 L136.294,11.274 C136.668,10.636 137.02,9.998 137.372,9.338 L148.834,9.338 L148.834,7.116 L138.34,7.116 C138.582,6.456 138.802,5.774 139.022,5.07 L136.668,4.784 C136.426,5.576 136.14,6.346 135.81,7.116 L129.408,7.116 L129.408,9.338 L134.71,9.338 C133.258,11.846 131.3,14.09 128.814,16.048 L130.31,18.006 C131.63,16.928 132.84,15.762 133.918,14.53 L133.918,25.266 L136.074,25.266 Z M144.082,15.014 L136.074,15.014 L136.074,13.254 L144.082,13.254 L144.082,15.014 Z M144.082,18.71 L136.074,18.71 L136.074,16.994 L144.082,16.994 L144.082,18.71 Z M170.042,25.156 L171.318,23.132 C169.866,22.296 168.7,21.284 167.798,20.14 C168.898,19.524 169.91,18.688 170.812,17.632 L169.36,16.158 C168.524,17.17 167.644,17.94 166.72,18.512 C166.236,17.61 165.884,16.642 165.664,15.586 L169.536,15.586 L169.536,5.598 L159.46,5.598 L159.46,22.318 C159.46,22.626 159.262,22.846 158.91,22.956 L159.46,24.98 C161.924,24.364 163.97,23.704 165.598,23.022 L165.048,20.888 C163.948,21.416 162.848,21.834 161.726,22.186 L161.726,15.586 L163.596,15.586 C164.322,19.612 166.478,22.802 170.042,25.156 Z M153.784,25.31 L153.784,7.776 L156.534,7.776 C155.984,9.514 155.214,11.472 154.246,13.65 C155.72,15.476 156.468,17.126 156.468,18.6 C156.468,18.952 156.38,19.194 156.204,19.326 C156.028,19.458 155.676,19.524 155.148,19.568 C154.818,19.568 154.4,19.524 153.916,19.436 L154.664,21.768 C156.292,21.746 157.458,21.438 158.118,20.866 C158.558,20.426 158.778,19.656 158.778,18.6 C158.668,17.104 157.942,15.344 156.578,13.298 C157.436,11.23 158.184,9.272 158.844,7.424 L158.844,5.62 L151.54,5.62 L151.54,25.31 L153.784,25.31 Z M167.292,9.602 L161.726,9.602 L161.726,7.754 L167.292,7.754 L167.292,9.602 Z M167.292,13.496 L161.726,13.496 L161.726,11.67 L167.292,11.67 L167.292,13.496 Z M191.514,16.554 L193.164,14.64 C190.172,12.132 188.082,8.898 186.894,4.938 L184.914,6.038 C186.168,10.35 188.368,13.848 191.514,16.554 Z M174.706,16.51 C177.236,14.068 179.282,10.57 180.822,5.994 L178.688,5.114 C177.434,9.184 175.498,12.462 172.88,14.926 L174.706,16.51 Z M189.116,25.31 L191.272,24.342 C190.15,21.658 188.808,19.128 187.268,16.774 L185.2,17.478 C185.926,18.622 186.63,19.898 187.312,21.284 C184.496,21.724 181.592,22.032 178.644,22.23 C180.448,19.722 182.208,16.686 183.924,13.144 L181.658,12.352 C178.798,18.666 176.62,21.988 175.146,22.318 L175.542,24.562 C180.228,24.254 184.474,23.836 188.258,23.264 C188.544,23.924 188.83,24.606 189.116,25.31 Z M210.83,25.134 C212.502,25.134 213.338,24.254 213.338,22.494 L213.338,5.62 L196.398,5.62 L196.398,7.82 L211.05,7.82 L211.05,21.856 C211.05,22.604 210.808,23 210.324,23 L207.2,22.934 L207.794,25.134 L210.83,25.134 Z M209.224,12.044 L209.224,9.954 L195.166,9.954 L195.166,12.044 L209.224,12.044 Z M207.222,21.46 L207.222,14.156 L197.014,14.156 L197.014,21.46 L207.222,21.46 Z M205.022,19.436 L199.192,19.436 L199.192,16.18 L205.022,16.18 L205.022,19.436 Z" id="悅文科技有限公司" fill="#000000" fill-rule="nonzero"></path>
        </g>
    </g>
</svg>