<?xml version="1.0" encoding="UTF-8"?>
<svg width="60px" height="60px" viewBox="0 0 60 60" version="1.1" xmlns="http://www.w3.org/2000/svg" xmlns:xlink="http://www.w3.org/1999/xlink">
    <!-- Generator: Sketch 61.2 (89653) - https://sketch.com -->
    <title>画板备份</title>
    <desc>Created with Sketch.</desc>
    <g id="画板备份" stroke="none" stroke-width="1" fill="none" fill-rule="evenodd">
        <circle id="椭圆形" fill="#F3F5F9" fill-rule="nonzero" cx="30" cy="30" r="30"></circle>
        <g id="WhatsApp" transform="translate(14.000000, 14.000000)" fill-rule="nonzero">
            <path d="M8.3891892,27.5027027 L8.90810811,27.7621622 C11.0702703,29.0594595 13.4918919,29.6648649 15.9135135,29.6648649 L15.9135135,29.6648649 C23.5243243,29.6648649 29.7513514,23.4378378 29.7513514,15.827027 C29.7513514,12.1945946 28.2810811,8.64864863 25.6864865,6.05405406 C23.0918919,3.45945946 19.6324325,1.98918919 15.9135135,1.98918919 C8.30270269,1.98918919 2.07567567,8.21621623 2.16216216,15.9135135 C2.16216216,18.5081081 2.94054054,21.0162162 4.23783784,23.1783784 L4.58378378,23.6972973 L3.2,28.8 L8.3891892,27.5027027 Z" id="Shape" fill="#F3F5F9"></path>
            <path d="M27.1567567,4.67027027 C24.2162162,1.64324325 20.1513514,0 16,0 C7.1783784,0 0.0864864863,7.1783784 0.172972973,15.9135135 C0.172972973,18.6810811 0.951351349,21.3621622 2.24864865,23.7837838 L0,32 L8.3891892,29.8378378 C10.7243243,31.1351351 13.3189189,31.7405405 15.9135135,31.7405405 L15.9135135,31.7405405 C24.6486486,31.7405405 31.7405405,24.5621622 31.7405405,15.827027 C31.7405405,11.5891892 30.0972973,7.6108108 27.1567567,4.67027027 Z M16,29.0594595 L16,29.0594595 C13.6648649,29.0594595 11.3297297,28.4540541 9.34054051,27.2432433 L8.8216216,26.9837838 L3.80540541,28.2810811 L5.1027027,23.3513514 L4.75675675,22.8324325 C0.951351349,16.6918919 2.76756757,8.56216217 8.99459457,4.75675675 C15.2216216,0.951351349 23.2648649,2.76756757 27.0702703,8.99459457 C30.8756757,15.2216216 29.0594595,23.2648649 22.8324325,27.0702703 C20.8432433,28.3675675 18.4216216,29.0594595 16,29.0594595 Z M23.6108108,19.4594595 L22.6594595,19.027027 C22.6594595,19.027027 21.2756757,18.4216216 20.4108108,17.9891892 C20.3243243,17.9891892 20.2378378,17.9027027 20.1513514,17.9027027 C19.8918919,17.9027027 19.7189189,17.9891892 19.5459459,18.0756757 L19.5459459,18.0756757 C19.5459459,18.0756757 19.4594595,18.1621622 18.2486486,19.5459459 C18.1621622,19.7189189 17.9891892,19.8054054 17.8162162,19.8054054 L17.7297297,19.8054054 C17.6432433,19.8054054 17.4702703,19.7189189 17.3837838,19.6324325 L16.9513514,19.4594595 L16.9513514,19.4594595 C16,19.027027 15.1351351,18.5081081 14.4432433,17.8162162 C14.2702703,17.6432433 14.0108108,17.4702703 13.8378378,17.2972973 C13.2324325,16.6918919 12.627027,16 12.1945946,15.2216216 L12.1081081,15.0486486 C12.0216216,14.9621622 12.0216216,14.8756757 11.9351351,14.7027027 C11.9351351,14.5297297 11.9351351,14.3567567 12.0216216,14.2702703 C12.0216216,14.2702703 12.3675675,13.8378378 12.627027,13.5783784 C12.8,13.4054054 12.8864865,13.1459459 13.0594595,12.972973 C13.2324325,12.7135135 13.3189189,12.3675675 13.2324325,12.1081081 C13.1459459,11.6756757 12.1081081,9.34054051 11.8486486,8.8216216 C11.6756757,8.56216217 11.5027027,8.47567566 11.2432433,8.3891892 L10.9837838,8.3891892 C10.8108108,8.3891892 10.5513514,8.3891892 10.2918919,8.3891892 C10.1189189,8.3891892 9.94594594,8.47567566 9.77297297,8.47567566 L9.68648651,8.56216217 C9.51351349,8.64864863 9.34054051,8.8216216 9.16756754,8.90810811 C8.99459457,9.08108109 8.90810811,9.25405406 8.73513514,9.42702703 C8.12972971,10.2054054 7.78378377,11.1567567 7.78378377,12.1081081 L7.78378377,12.1081081 C7.78378377,12.8 7.95675674,13.4918919 8.21621623,14.0972973 L8.30270269,14.3567567 C9.08108109,16 10.1189189,17.4702703 11.5027027,18.7675675 L11.8486486,19.1135135 C12.1081081,19.372973 12.3675675,19.5459459 12.5405405,19.8054054 C14.3567567,21.3621622 16.4324325,22.4864865 18.7675675,23.0918919 C19.027027,23.1783784 19.372973,23.1783784 19.6324325,23.2648649 L19.6324325,23.2648649 C19.8918919,23.2648649 20.2378378,23.2648649 20.4972973,23.2648649 C20.9297297,23.2648649 21.4486486,23.0918919 21.7945946,22.9189189 C22.0540541,22.7459459 22.227027,22.7459459 22.4,22.572973 L22.572973,22.4 C22.7459459,22.227027 22.9189189,22.1405405 23.0918919,21.9675675 C23.2648649,21.7945946 23.4378378,21.6216216 23.5243243,21.4486486 C23.6972973,21.1027027 23.7837838,20.6702703 23.8702703,20.2378378 C23.8702703,20.0648649 23.8702703,19.8054054 23.8702703,19.6324325 C23.8702703,19.6324325 23.7837838,19.5459459 23.6108108,19.4594595 Z" id="Shape" fill="#020E27" opacity="0.300000012"></path>
        </g>
    </g>
</svg>