<?xml version="1.0" encoding="UTF-8"?>
<svg width="72px" height="72px" viewBox="0 0 72 72" version="1.1" xmlns="http://www.w3.org/2000/svg" xmlns:xlink="http://www.w3.org/1999/xlink">
    <!-- Generator: Sketch 61.2 (89653) - https://sketch.com -->
    <title>完善的售後服務</title>
    <desc>Created with Sketch.</desc>
    <g id="完善的售後服務" stroke="none" stroke-width="1" fill="none" fill-rule="evenodd">
        <g id="编组-3">
            <path d="M36,4 C48.7025492,4 59,14.2974508 59,27 L59,43 C59,54.6856531 50.2852702,64.3358719 39.0003986,65.8060686 L39.0005824,62.7764116 C48.5123967,61.3453275 55.8303798,53.2155405 55.9970929,43.3444894 L56,43 L56,27 C56,15.954305 47.045695,7 36,7 C25.0693643,7 16.186775,15.7687286 16.0029071,26.6555106 L16,27 L16,43 C16,43.6753334 16.033472,44.3428489 16.0988476,45.0009781 L13.0858087,45.0006675 C13.028996,44.3413369 13,43.6740546 13,43 L13,27 C13,14.2974508 23.2974508,4 36,4 Z" id="形状结合" fill="#020E27" fill-rule="nonzero"></path>
            <rect id="矩形" stroke="#00E59E" stroke-width="3" x="30.5" y="61.5" width="9" height="5"></rect>
            <g id="客服" transform="translate(6.000000, 12.000000)" stroke-width="3">
                <rect id="矩形" stroke="#0055FF" x="51.5" y="15.5" width="7" height="16"></rect>
                <circle id="椭圆形" stroke="#020E27" cx="30" cy="16" r="14.5"></circle>
                <rect id="矩形备份-12" stroke="#0055FF" x="1.5" y="15.5" width="7" height="16"></rect>
            </g>
        </g>
    </g>
</svg>