<?xml version="1.0" encoding="UTF-8"?>
<svg width="72px" height="72px" viewBox="0 0 72 72" version="1.1" xmlns="http://www.w3.org/2000/svg" xmlns:xlink="http://www.w3.org/1999/xlink">
    <!-- Generator: Sketch 61.2 (89653) - https://sketch.com -->
    <title>分享時代的最大化傳播</title>
    <desc>Created with Sketch.</desc>
    <g id="分享時代的最大化傳播" stroke="none" stroke-width="1" fill="none" fill-rule="evenodd">
        <g id="编组-3">
            <g id="信息传播" transform="translate(7.000000, 4.000000)">
                <path d="M30.9342106,29.1363637 L30.9342106,37.2490454 L46.7105264,63.5 L12.2894736,63.5 L28.0657894,37.2490454 L28.0657894,29.1363637 L30.9342106,29.1363637 Z M36.0572106,52.0454546 L22.9427894,52.0454546 L18.0263158,60.6363637 L40.9736842,60.6363637 L36.0572106,52.0454546 Z M29.5,40.5909091 L24.5835263,49.1818182 L34.4164737,49.1818182 L29.5,40.5909091 Z" id="形状结合" fill="#020E27" fill-rule="nonzero"></path>
                <path d="M11.4691052,51.4097272 C4.724088,45.9778038 0.806876138,37.7879138 0.81577425,29.1363637 C0.81577425,13.3205 13.6577105,0.5 29.5,0.5 C45.3422895,0.5 58.1842257,13.3205 58.1842257,29.1363637 C58.1931239,37.7879138 54.275912,45.9778038 47.5308948,51.4097272 L45.9676052,48.9842272 C54.3482207,42.0532168 57.4750496,30.6197605 53.78519,20.3987124 C50.0953304,10.1776643 40.3813175,3.36437667 29.4985658,3.36437667 C18.615814,3.36437667 8.9018012,10.1776643 5.21194158,20.3987124 C1.52208196,30.6197605 4.64891087,42.0532168 13.0295263,48.9842272 L11.4691052,51.4097272 Z" id="路径" fill="#0055FF" fill-rule="nonzero"></path>
                <path d="M16.1618421,44.1217728 C9.93028933,38.5930183 7.76908324,29.7951446 10.7313992,22.0154358 C13.6937152,14.2357269 21.1632376,9.09276682 29.5,9.09276682 C37.8367624,9.09276682 45.3062848,14.2357269 48.2686008,22.0154358 C51.2309168,29.7951446 49.0697107,38.5930183 42.8381579,44.1217728 L41.2633948,41.6790909 C46.4197942,36.8588735 48.1022176,29.3825161 45.5064858,22.8236322 C42.910754,16.2647483 36.5640398,11.9553957 29.5,11.9553957 C22.4359602,11.9553957 16.089246,16.2647483 13.4935142,22.8236322 C10.8977824,29.3825161 12.5802058,36.8588735 17.7366052,41.6790909 L16.1618421,44.1217728 L16.1618421,44.1217728 Z" id="路径" fill="#00E59E"></path>
                <path d="M20.9176842,36.7393182 C16.829768,32.1398506 17.1087728,25.1386558 21.5497762,20.8779414 C25.9907797,16.617227 33.0092203,16.617227 37.4502238,20.8779414 C41.8912272,25.1386558 42.170232,32.1398506 38.0823158,36.7393182 L36.4501842,34.2021363 C39.0501211,30.6467773 38.5374749,25.7047274 35.2629327,22.7567055 C31.9883904,19.8086837 27.0116096,19.8086837 23.7370673,22.7567055 C20.4625251,25.7047274 19.9498789,30.6467773 22.5498158,34.2021363 L20.9148158,36.7393182 L20.9176842,36.7393182 Z" id="路径" fill="#0055FF" fill-rule="nonzero"></path>
            </g>
        </g>
    </g>
</svg>